<mxfile host="65bd71144e" modified="2022-03-08T06:04:48.584Z" agent="5.0 (Macintosh; Intel Mac OS X 10_15_7) AppleWebKit/537.36 (KHTML, like Gecko) Code/1.65.0 Chrome/91.0.4472.164 Electron/13.5.2 Safari/537.36" etag="DiMClFp8DE8y8-Q-ZRZ1" version="16.0.0" type="embed" pages="2">
    <diagram id="LEb9X160D1Ai3owK-MI6" name="Alzette">
        <mxGraphModel dx="1262" dy="638" grid="1" gridSize="10" guides="1" tooltips="1" connect="1" arrows="1" fold="1" page="1" pageScale="1" pageWidth="850" pageHeight="1100" math="1" shadow="0">
            <root>
                <mxCell id="0"/>
                <mxCell id="1" parent="0"/>
                <mxCell id="6DAw6io5cLMbZtRBRlxA-21" style="edgeStyle=none;rounded=0;orthogonalLoop=1;jettySize=auto;html=1;exitX=0.5;exitY=1;exitDx=0;exitDy=0;entryX=0.5;entryY=0;entryDx=0;entryDy=0;fontSize=8;startSize=1;endSize=1;" parent="1" source="6DAw6io5cLMbZtRBRlxA-1" target="6DAw6io5cLMbZtRBRlxA-17" edge="1">
                    <mxGeometry relative="1" as="geometry"/>
                </mxCell>
                <mxCell id="6DAw6io5cLMbZtRBRlxA-1" value="`+`" style="rounded=0;whiteSpace=wrap;html=1;fontSize=19;fillColor=#f5f5f5;strokeColor=#666666;fontColor=#333333;" parent="1" vertex="1">
                    <mxGeometry x="120" y="200" width="40" height="40" as="geometry"/>
                </mxCell>
                <mxCell id="6DAw6io5cLMbZtRBRlxA-103" style="edgeStyle=none;rounded=0;orthogonalLoop=1;jettySize=auto;html=1;exitX=0.5;exitY=1;exitDx=0;exitDy=0;entryX=0.5;entryY=0.5;entryDx=0;entryDy=0;fontSize=10;startSize=1;endSize=1;endFill=0;endArrow=none;" parent="1" source="6DAw6io5cLMbZtRBRlxA-2" target="6DAw6io5cLMbZtRBRlxA-44" edge="1">
                    <mxGeometry relative="1" as="geometry"/>
                </mxCell>
                <mxCell id="6DAw6io5cLMbZtRBRlxA-2" value="" style="shape=orEllipse;perimeter=ellipsePerimeter;whiteSpace=wrap;html=1;backgroundOutline=1;aspect=fixed;" parent="1" vertex="1">
                    <mxGeometry x="250" y="250" width="20" height="20" as="geometry"/>
                </mxCell>
                <mxCell id="6DAw6io5cLMbZtRBRlxA-7" style="edgeStyle=orthogonalEdgeStyle;rounded=0;orthogonalLoop=1;jettySize=auto;html=1;exitX=0.5;exitY=1;exitDx=0;exitDy=0;entryX=0.5;entryY=0;entryDx=0;entryDy=0;fontSize=8;endSize=1;startSize=1;" parent="1" source="6DAw6io5cLMbZtRBRlxA-3" target="6DAw6io5cLMbZtRBRlxA-1" edge="1">
                    <mxGeometry relative="1" as="geometry"/>
                </mxCell>
                <mxCell id="6DAw6io5cLMbZtRBRlxA-3" value="x" style="text;html=1;fillColor=#f5f5f5;align=center;verticalAlign=middle;whiteSpace=wrap;rounded=1;fontSize=12;strokeColor=#666666;fontColor=#333333;" parent="1" vertex="1">
                    <mxGeometry x="130" y="160" width="20" height="20" as="geometry"/>
                </mxCell>
                <mxCell id="6DAw6io5cLMbZtRBRlxA-6" style="rounded=0;orthogonalLoop=1;jettySize=auto;html=1;exitX=0.5;exitY=0.5;exitDx=0;exitDy=0;entryX=1;entryY=0.5;entryDx=0;entryDy=0;fontSize=8;endSize=1;startSize=1;" parent="1" source="6DAw6io5cLMbZtRBRlxA-12" target="6DAw6io5cLMbZtRBRlxA-5" edge="1">
                    <mxGeometry relative="1" as="geometry"/>
                </mxCell>
                <mxCell id="6DAw6io5cLMbZtRBRlxA-104" style="edgeStyle=none;rounded=0;orthogonalLoop=1;jettySize=auto;html=1;exitX=0.5;exitY=1;exitDx=0;exitDy=0;entryX=0.5;entryY=0.5;entryDx=0;entryDy=0;fontSize=10;startSize=1;endSize=1;endFill=0;endArrow=none;" parent="1" source="6DAw6io5cLMbZtRBRlxA-4" target="6DAw6io5cLMbZtRBRlxA-12" edge="1">
                    <mxGeometry relative="1" as="geometry"/>
                </mxCell>
                <mxCell id="6DAw6io5cLMbZtRBRlxA-4" value="y" style="text;html=1;fillColor=#f5f5f5;align=center;verticalAlign=middle;whiteSpace=wrap;rounded=1;fontSize=12;spacingBottom=4;strokeColor=#666666;fontColor=#333333;" parent="1" vertex="1">
                    <mxGeometry x="250" y="160" width="20" height="20" as="geometry"/>
                </mxCell>
                <mxCell id="6DAw6io5cLMbZtRBRlxA-9" style="edgeStyle=orthogonalEdgeStyle;rounded=0;orthogonalLoop=1;jettySize=auto;html=1;exitX=0;exitY=0.5;exitDx=0;exitDy=0;entryX=1;entryY=0.5;entryDx=0;entryDy=0;fontSize=10;endSize=1;startSize=1;" parent="1" source="6DAw6io5cLMbZtRBRlxA-5" target="6DAw6io5cLMbZtRBRlxA-1" edge="1">
                    <mxGeometry relative="1" as="geometry"/>
                </mxCell>
                <mxCell id="6DAw6io5cLMbZtRBRlxA-5" value="\[\ggg 31\]" style="ellipse;whiteSpace=wrap;html=1;fontSize=8;" parent="1" vertex="1">
                    <mxGeometry x="180" y="210" width="40" height="20" as="geometry"/>
                </mxCell>
                <mxCell id="6DAw6io5cLMbZtRBRlxA-11" style="edgeStyle=orthogonalEdgeStyle;rounded=0;orthogonalLoop=1;jettySize=auto;html=1;exitX=1;exitY=0.5;exitDx=0;exitDy=0;entryX=0;entryY=0.5;entryDx=0;entryDy=0;fontSize=10;endSize=1;startSize=1;" parent="1" source="6DAw6io5cLMbZtRBRlxA-10" target="6DAw6io5cLMbZtRBRlxA-2" edge="1">
                    <mxGeometry relative="1" as="geometry"/>
                </mxCell>
                <mxCell id="6DAw6io5cLMbZtRBRlxA-10" value="\[\ggg 24\]" style="ellipse;whiteSpace=wrap;html=1;fontSize=8;fillColor=#fff2cc;strokeColor=#d6b656;" parent="1" vertex="1">
                    <mxGeometry x="180" y="250" width="40" height="20" as="geometry"/>
                </mxCell>
                <mxCell id="6DAw6io5cLMbZtRBRlxA-13" style="rounded=0;orthogonalLoop=1;jettySize=auto;html=1;exitX=0.5;exitY=0.5;exitDx=0;exitDy=0;entryX=0.5;entryY=0;entryDx=0;entryDy=0;fontSize=10;endSize=1;startSize=1;" parent="1" source="6DAw6io5cLMbZtRBRlxA-12" target="6DAw6io5cLMbZtRBRlxA-2" edge="1">
                    <mxGeometry relative="1" as="geometry"/>
                </mxCell>
                <mxCell id="6DAw6io5cLMbZtRBRlxA-12" value="" style="ellipse;whiteSpace=wrap;html=1;aspect=fixed;rounded=0;strokeWidth=3;fontColor=#5E5E5E;align=right;fillColor=#000000;spacingBottom=1;spacingLeft=1;spacingRight=1;points=[[0.5,0.5]];fontSize=10;" parent="1" vertex="1">
                    <mxGeometry x="259" y="219" width="2" height="2" as="geometry"/>
                </mxCell>
                <mxCell id="6DAw6io5cLMbZtRBRlxA-15" style="rounded=0;orthogonalLoop=1;jettySize=auto;html=1;exitX=0.5;exitY=0.5;exitDx=0;exitDy=0;entryX=0;entryY=0.5;entryDx=0;entryDy=0;fontSize=8;startSize=1;endSize=1;" parent="1" source="6DAw6io5cLMbZtRBRlxA-14" target="6DAw6io5cLMbZtRBRlxA-10" edge="1">
                    <mxGeometry relative="1" as="geometry"/>
                </mxCell>
                <mxCell id="6DAw6io5cLMbZtRBRlxA-14" value="" style="ellipse;whiteSpace=wrap;html=1;aspect=fixed;rounded=0;strokeWidth=3;fontColor=#5E5E5E;align=right;fillColor=#000000;spacingBottom=1;spacingLeft=1;spacingRight=1;points=[[0.5,0.5]];fontSize=10;" parent="1" vertex="1">
                    <mxGeometry x="139" y="259" width="2" height="2" as="geometry"/>
                </mxCell>
                <mxCell id="6DAw6io5cLMbZtRBRlxA-97" style="edgeStyle=none;rounded=0;orthogonalLoop=1;jettySize=auto;html=1;exitX=0.5;exitY=1;exitDx=0;exitDy=0;entryX=0.5;entryY=0;entryDx=0;entryDy=0;fontSize=8;startSize=1;endSize=1;" parent="1" source="6DAw6io5cLMbZtRBRlxA-17" target="6DAw6io5cLMbZtRBRlxA-36" edge="1">
                    <mxGeometry relative="1" as="geometry"/>
                </mxCell>
                <mxCell id="6DAw6io5cLMbZtRBRlxA-17" value="" style="shape=orEllipse;perimeter=ellipsePerimeter;whiteSpace=wrap;html=1;backgroundOutline=1;aspect=fixed;" parent="1" vertex="1">
                    <mxGeometry x="130" y="280" width="20" height="20" as="geometry"/>
                </mxCell>
                <mxCell id="6DAw6io5cLMbZtRBRlxA-19" style="edgeStyle=none;rounded=0;orthogonalLoop=1;jettySize=auto;html=1;exitX=0.5;exitY=0.5;exitDx=0;exitDy=0;entryX=0;entryY=0.5;entryDx=0;entryDy=0;fontSize=8;startSize=1;endSize=1;" parent="1" source="6DAw6io5cLMbZtRBRlxA-20" target="6DAw6io5cLMbZtRBRlxA-17" edge="1">
                    <mxGeometry relative="1" as="geometry">
                        <Array as="points">
                            <mxPoint x="100" y="290"/>
                        </Array>
                    </mxGeometry>
                </mxCell>
                <mxCell id="6DAw6io5cLMbZtRBRlxA-95" style="edgeStyle=none;rounded=0;orthogonalLoop=1;jettySize=auto;html=1;exitX=0.5;exitY=1;exitDx=0;exitDy=0;entryX=0.5;entryY=0.5;entryDx=0;entryDy=0;fontSize=10;startSize=1;endSize=1;endArrow=none;endFill=0;" parent="1" source="6DAw6io5cLMbZtRBRlxA-18" target="6DAw6io5cLMbZtRBRlxA-79" edge="1">
                    <mxGeometry relative="1" as="geometry"/>
                </mxCell>
                <mxCell id="6DAw6io5cLMbZtRBRlxA-18" value="c" style="text;html=1;fillColor=#f5f5f5;align=center;verticalAlign=middle;whiteSpace=wrap;rounded=1;fontSize=12;strokeColor=#666666;fontColor=#333333;" parent="1" vertex="1">
                    <mxGeometry x="90" y="160" width="20" height="20" as="geometry"/>
                </mxCell>
                <mxCell id="6DAw6io5cLMbZtRBRlxA-20" value="" style="ellipse;whiteSpace=wrap;html=1;aspect=fixed;rounded=0;strokeWidth=3;fontColor=#5E5E5E;align=right;fillColor=#000000;spacingBottom=1;spacingLeft=1;spacingRight=1;points=[[0.5,0.5]];fontSize=10;" parent="1" vertex="1">
                    <mxGeometry x="99" y="289" width="2" height="2" as="geometry"/>
                </mxCell>
                <mxCell id="6DAw6io5cLMbZtRBRlxA-35" style="edgeStyle=none;rounded=0;orthogonalLoop=1;jettySize=auto;html=1;exitX=0.5;exitY=1;exitDx=0;exitDy=0;entryX=0.5;entryY=0;entryDx=0;entryDy=0;fontSize=8;startSize=1;endSize=1;" parent="1" source="6DAw6io5cLMbZtRBRlxA-36" target="6DAw6io5cLMbZtRBRlxA-47" edge="1">
                    <mxGeometry relative="1" as="geometry"/>
                </mxCell>
                <mxCell id="6DAw6io5cLMbZtRBRlxA-36" value="`+`" style="rounded=0;whiteSpace=wrap;html=1;fontSize=19;fillColor=#f5f5f5;strokeColor=#666666;fontColor=#333333;" parent="1" vertex="1">
                    <mxGeometry x="120" y="320" width="40" height="40" as="geometry"/>
                </mxCell>
                <mxCell id="6DAw6io5cLMbZtRBRlxA-102" style="edgeStyle=none;rounded=0;orthogonalLoop=1;jettySize=auto;html=1;exitX=0.5;exitY=1;exitDx=0;exitDy=0;entryX=0.5;entryY=0.5;entryDx=0;entryDy=0;fontSize=10;startSize=1;endSize=1;endFill=0;endArrow=none;" parent="1" source="6DAw6io5cLMbZtRBRlxA-37" target="6DAw6io5cLMbZtRBRlxA-59" edge="1">
                    <mxGeometry relative="1" as="geometry"/>
                </mxCell>
                <mxCell id="6DAw6io5cLMbZtRBRlxA-37" value="" style="shape=orEllipse;perimeter=ellipsePerimeter;whiteSpace=wrap;html=1;backgroundOutline=1;aspect=fixed;" parent="1" vertex="1">
                    <mxGeometry x="250" y="370" width="20" height="20" as="geometry"/>
                </mxCell>
                <mxCell id="6DAw6io5cLMbZtRBRlxA-38" style="rounded=0;orthogonalLoop=1;jettySize=auto;html=1;exitX=0.5;exitY=0.5;exitDx=0;exitDy=0;entryX=1;entryY=0.5;entryDx=0;entryDy=0;fontSize=8;endSize=1;startSize=1;" parent="1" source="6DAw6io5cLMbZtRBRlxA-44" target="6DAw6io5cLMbZtRBRlxA-40" edge="1">
                    <mxGeometry relative="1" as="geometry"/>
                </mxCell>
                <mxCell id="6DAw6io5cLMbZtRBRlxA-39" style="edgeStyle=orthogonalEdgeStyle;rounded=0;orthogonalLoop=1;jettySize=auto;html=1;exitX=0;exitY=0.5;exitDx=0;exitDy=0;entryX=1;entryY=0.5;entryDx=0;entryDy=0;fontSize=10;endSize=1;startSize=1;" parent="1" source="6DAw6io5cLMbZtRBRlxA-40" target="6DAw6io5cLMbZtRBRlxA-36" edge="1">
                    <mxGeometry relative="1" as="geometry"/>
                </mxCell>
                <mxCell id="6DAw6io5cLMbZtRBRlxA-40" value="\[\ggg 17\]" style="ellipse;whiteSpace=wrap;html=1;fontSize=8;" parent="1" vertex="1">
                    <mxGeometry x="180" y="330" width="40" height="20" as="geometry"/>
                </mxCell>
                <mxCell id="6DAw6io5cLMbZtRBRlxA-41" style="edgeStyle=orthogonalEdgeStyle;rounded=0;orthogonalLoop=1;jettySize=auto;html=1;exitX=1;exitY=0.5;exitDx=0;exitDy=0;entryX=0;entryY=0.5;entryDx=0;entryDy=0;fontSize=10;endSize=1;startSize=1;" parent="1" source="6DAw6io5cLMbZtRBRlxA-42" target="6DAw6io5cLMbZtRBRlxA-37" edge="1">
                    <mxGeometry relative="1" as="geometry"/>
                </mxCell>
                <mxCell id="6DAw6io5cLMbZtRBRlxA-42" value="\[\ggg 17\]" style="ellipse;whiteSpace=wrap;html=1;fontSize=8;fillColor=#fff2cc;strokeColor=#d6b656;" parent="1" vertex="1">
                    <mxGeometry x="180" y="370" width="40" height="20" as="geometry"/>
                </mxCell>
                <mxCell id="6DAw6io5cLMbZtRBRlxA-43" style="rounded=0;orthogonalLoop=1;jettySize=auto;html=1;exitX=0.5;exitY=0.5;exitDx=0;exitDy=0;entryX=0.5;entryY=0;entryDx=0;entryDy=0;fontSize=10;endSize=1;startSize=1;" parent="1" source="6DAw6io5cLMbZtRBRlxA-44" target="6DAw6io5cLMbZtRBRlxA-37" edge="1">
                    <mxGeometry relative="1" as="geometry"/>
                </mxCell>
                <mxCell id="6DAw6io5cLMbZtRBRlxA-44" value="" style="ellipse;whiteSpace=wrap;html=1;aspect=fixed;rounded=0;strokeWidth=3;fontColor=#5E5E5E;align=right;fillColor=#000000;spacingBottom=1;spacingLeft=1;spacingRight=1;points=[[0.5,0.5]];fontSize=10;" parent="1" vertex="1">
                    <mxGeometry x="259" y="339" width="2" height="2" as="geometry"/>
                </mxCell>
                <mxCell id="6DAw6io5cLMbZtRBRlxA-45" style="rounded=0;orthogonalLoop=1;jettySize=auto;html=1;exitX=0.5;exitY=0.5;exitDx=0;exitDy=0;entryX=0;entryY=0.5;entryDx=0;entryDy=0;fontSize=8;startSize=1;endSize=1;" parent="1" source="6DAw6io5cLMbZtRBRlxA-46" target="6DAw6io5cLMbZtRBRlxA-42" edge="1">
                    <mxGeometry relative="1" as="geometry"/>
                </mxCell>
                <mxCell id="6DAw6io5cLMbZtRBRlxA-46" value="" style="ellipse;whiteSpace=wrap;html=1;aspect=fixed;rounded=0;strokeWidth=3;fontColor=#5E5E5E;align=right;fillColor=#000000;spacingBottom=1;spacingLeft=1;spacingRight=1;points=[[0.5,0.5]];fontSize=10;" parent="1" vertex="1">
                    <mxGeometry x="139" y="379" width="2" height="2" as="geometry"/>
                </mxCell>
                <mxCell id="6DAw6io5cLMbZtRBRlxA-98" style="edgeStyle=none;rounded=0;orthogonalLoop=1;jettySize=auto;html=1;exitX=0.5;exitY=1;exitDx=0;exitDy=0;entryX=0.5;entryY=0;entryDx=0;entryDy=0;fontSize=8;startSize=1;endSize=1;" parent="1" source="6DAw6io5cLMbZtRBRlxA-47" target="6DAw6io5cLMbZtRBRlxA-51" edge="1">
                    <mxGeometry relative="1" as="geometry"/>
                </mxCell>
                <mxCell id="6DAw6io5cLMbZtRBRlxA-47" value="" style="shape=orEllipse;perimeter=ellipsePerimeter;whiteSpace=wrap;html=1;backgroundOutline=1;aspect=fixed;" parent="1" vertex="1">
                    <mxGeometry x="130" y="400" width="20" height="20" as="geometry"/>
                </mxCell>
                <mxCell id="6DAw6io5cLMbZtRBRlxA-48" style="edgeStyle=none;rounded=0;orthogonalLoop=1;jettySize=auto;html=1;exitX=0.5;exitY=0.5;exitDx=0;exitDy=0;entryX=0;entryY=0.5;entryDx=0;entryDy=0;fontSize=8;startSize=1;endSize=1;" parent="1" source="6DAw6io5cLMbZtRBRlxA-49" target="6DAw6io5cLMbZtRBRlxA-47" edge="1">
                    <mxGeometry relative="1" as="geometry">
                        <Array as="points">
                            <mxPoint x="100" y="410"/>
                        </Array>
                    </mxGeometry>
                </mxCell>
                <mxCell id="6DAw6io5cLMbZtRBRlxA-49" value="" style="ellipse;whiteSpace=wrap;html=1;aspect=fixed;rounded=0;strokeWidth=3;fontColor=#5E5E5E;align=right;fillColor=#000000;spacingBottom=1;spacingLeft=1;spacingRight=1;points=[[0.5,0.5]];fontSize=10;" parent="1" vertex="1">
                    <mxGeometry x="99" y="409" width="2" height="2" as="geometry"/>
                </mxCell>
                <mxCell id="6DAw6io5cLMbZtRBRlxA-50" style="edgeStyle=none;rounded=0;orthogonalLoop=1;jettySize=auto;html=1;exitX=0.5;exitY=1;exitDx=0;exitDy=0;entryX=0.5;entryY=0;entryDx=0;entryDy=0;fontSize=8;startSize=1;endSize=1;" parent="1" source="6DAw6io5cLMbZtRBRlxA-51" target="6DAw6io5cLMbZtRBRlxA-62" edge="1">
                    <mxGeometry relative="1" as="geometry"/>
                </mxCell>
                <mxCell id="6DAw6io5cLMbZtRBRlxA-51" value="`+`" style="rounded=0;whiteSpace=wrap;html=1;fontSize=19;fillColor=#f5f5f5;strokeColor=#666666;fontColor=#333333;" parent="1" vertex="1">
                    <mxGeometry x="120" y="440" width="40" height="40" as="geometry"/>
                </mxCell>
                <mxCell id="6DAw6io5cLMbZtRBRlxA-101" style="edgeStyle=none;rounded=0;orthogonalLoop=1;jettySize=auto;html=1;exitX=0.5;exitY=1;exitDx=0;exitDy=0;entryX=0.5;entryY=0.5;entryDx=0;entryDy=0;fontSize=10;startSize=1;endSize=1;endFill=0;endArrow=none;" parent="1" source="6DAw6io5cLMbZtRBRlxA-52" target="6DAw6io5cLMbZtRBRlxA-74" edge="1">
                    <mxGeometry relative="1" as="geometry"/>
                </mxCell>
                <mxCell id="6DAw6io5cLMbZtRBRlxA-52" value="" style="shape=orEllipse;perimeter=ellipsePerimeter;whiteSpace=wrap;html=1;backgroundOutline=1;aspect=fixed;" parent="1" vertex="1">
                    <mxGeometry x="250" y="490" width="20" height="20" as="geometry"/>
                </mxCell>
                <mxCell id="6DAw6io5cLMbZtRBRlxA-53" style="rounded=0;orthogonalLoop=1;jettySize=auto;html=1;exitX=0.5;exitY=0.5;exitDx=0;exitDy=0;entryX=1;entryY=0.5;entryDx=0;entryDy=0;fontSize=8;endSize=1;startSize=1;" parent="1" source="6DAw6io5cLMbZtRBRlxA-59" target="6DAw6io5cLMbZtRBRlxA-55" edge="1">
                    <mxGeometry relative="1" as="geometry"/>
                </mxCell>
                <mxCell id="6DAw6io5cLMbZtRBRlxA-54" style="edgeStyle=orthogonalEdgeStyle;rounded=0;orthogonalLoop=1;jettySize=auto;html=1;exitX=0;exitY=0.5;exitDx=0;exitDy=0;entryX=1;entryY=0.5;entryDx=0;entryDy=0;fontSize=10;endSize=1;startSize=1;" parent="1" source="6DAw6io5cLMbZtRBRlxA-55" target="6DAw6io5cLMbZtRBRlxA-51" edge="1">
                    <mxGeometry relative="1" as="geometry"/>
                </mxCell>
                <mxCell id="6DAw6io5cLMbZtRBRlxA-55" value="\[\ggg 0\]" style="ellipse;whiteSpace=wrap;html=1;fontSize=8;" parent="1" vertex="1">
                    <mxGeometry x="180" y="450" width="40" height="20" as="geometry"/>
                </mxCell>
                <mxCell id="6DAw6io5cLMbZtRBRlxA-56" style="edgeStyle=orthogonalEdgeStyle;rounded=0;orthogonalLoop=1;jettySize=auto;html=1;exitX=1;exitY=0.5;exitDx=0;exitDy=0;entryX=0;entryY=0.5;entryDx=0;entryDy=0;fontSize=10;endSize=1;startSize=1;" parent="1" source="6DAw6io5cLMbZtRBRlxA-57" target="6DAw6io5cLMbZtRBRlxA-52" edge="1">
                    <mxGeometry relative="1" as="geometry"/>
                </mxCell>
                <mxCell id="6DAw6io5cLMbZtRBRlxA-57" value="\[\ggg 31\]" style="ellipse;whiteSpace=wrap;html=1;fontSize=8;fillColor=#fff2cc;strokeColor=#d6b656;" parent="1" vertex="1">
                    <mxGeometry x="180" y="490" width="40" height="20" as="geometry"/>
                </mxCell>
                <mxCell id="6DAw6io5cLMbZtRBRlxA-58" style="rounded=0;orthogonalLoop=1;jettySize=auto;html=1;exitX=0.5;exitY=0.5;exitDx=0;exitDy=0;entryX=0.5;entryY=0;entryDx=0;entryDy=0;fontSize=10;endSize=1;startSize=1;" parent="1" source="6DAw6io5cLMbZtRBRlxA-59" target="6DAw6io5cLMbZtRBRlxA-52" edge="1">
                    <mxGeometry relative="1" as="geometry"/>
                </mxCell>
                <mxCell id="6DAw6io5cLMbZtRBRlxA-59" value="" style="ellipse;whiteSpace=wrap;html=1;aspect=fixed;rounded=0;strokeWidth=3;fontColor=#5E5E5E;align=right;fillColor=#000000;spacingBottom=1;spacingLeft=1;spacingRight=1;points=[[0.5,0.5]];fontSize=10;" parent="1" vertex="1">
                    <mxGeometry x="259" y="459" width="2" height="2" as="geometry"/>
                </mxCell>
                <mxCell id="6DAw6io5cLMbZtRBRlxA-60" style="rounded=0;orthogonalLoop=1;jettySize=auto;html=1;exitX=0.5;exitY=0.5;exitDx=0;exitDy=0;entryX=0;entryY=0.5;entryDx=0;entryDy=0;fontSize=8;startSize=1;endSize=1;" parent="1" source="6DAw6io5cLMbZtRBRlxA-61" target="6DAw6io5cLMbZtRBRlxA-57" edge="1">
                    <mxGeometry relative="1" as="geometry"/>
                </mxCell>
                <mxCell id="6DAw6io5cLMbZtRBRlxA-61" value="" style="ellipse;whiteSpace=wrap;html=1;aspect=fixed;rounded=0;strokeWidth=3;fontColor=#5E5E5E;align=right;fillColor=#000000;spacingBottom=1;spacingLeft=1;spacingRight=1;points=[[0.5,0.5]];fontSize=10;" parent="1" vertex="1">
                    <mxGeometry x="139" y="499" width="2" height="2" as="geometry"/>
                </mxCell>
                <mxCell id="6DAw6io5cLMbZtRBRlxA-99" style="edgeStyle=none;rounded=0;orthogonalLoop=1;jettySize=auto;html=1;exitX=0.5;exitY=1;exitDx=0;exitDy=0;entryX=0.5;entryY=0;entryDx=0;entryDy=0;fontSize=8;startSize=1;endSize=1;" parent="1" source="6DAw6io5cLMbZtRBRlxA-62" target="6DAw6io5cLMbZtRBRlxA-66" edge="1">
                    <mxGeometry relative="1" as="geometry"/>
                </mxCell>
                <mxCell id="6DAw6io5cLMbZtRBRlxA-62" value="" style="shape=orEllipse;perimeter=ellipsePerimeter;whiteSpace=wrap;html=1;backgroundOutline=1;aspect=fixed;" parent="1" vertex="1">
                    <mxGeometry x="130" y="520" width="20" height="20" as="geometry"/>
                </mxCell>
                <mxCell id="6DAw6io5cLMbZtRBRlxA-63" style="edgeStyle=none;rounded=0;orthogonalLoop=1;jettySize=auto;html=1;exitX=0.5;exitY=0.5;exitDx=0;exitDy=0;entryX=0;entryY=0.5;entryDx=0;entryDy=0;fontSize=8;startSize=1;endSize=1;" parent="1" source="6DAw6io5cLMbZtRBRlxA-64" target="6DAw6io5cLMbZtRBRlxA-62" edge="1">
                    <mxGeometry relative="1" as="geometry">
                        <Array as="points">
                            <mxPoint x="100" y="530"/>
                        </Array>
                    </mxGeometry>
                </mxCell>
                <mxCell id="6DAw6io5cLMbZtRBRlxA-64" value="" style="ellipse;whiteSpace=wrap;html=1;aspect=fixed;rounded=0;strokeWidth=3;fontColor=#5E5E5E;align=right;fillColor=#000000;spacingBottom=1;spacingLeft=1;spacingRight=1;points=[[0.5,0.5]];fontSize=10;" parent="1" vertex="1">
                    <mxGeometry x="99" y="529" width="2" height="2" as="geometry"/>
                </mxCell>
                <mxCell id="6DAw6io5cLMbZtRBRlxA-65" style="edgeStyle=none;rounded=0;orthogonalLoop=1;jettySize=auto;html=1;exitX=0.5;exitY=1;exitDx=0;exitDy=0;entryX=0.5;entryY=0;entryDx=0;entryDy=0;fontSize=8;startSize=1;endSize=1;" parent="1" source="6DAw6io5cLMbZtRBRlxA-66" target="6DAw6io5cLMbZtRBRlxA-77" edge="1">
                    <mxGeometry relative="1" as="geometry"/>
                </mxCell>
                <mxCell id="6DAw6io5cLMbZtRBRlxA-66" value="`+`" style="rounded=0;whiteSpace=wrap;html=1;fontSize=19;fillColor=#f5f5f5;strokeColor=#666666;fontColor=#333333;" parent="1" vertex="1">
                    <mxGeometry x="120" y="560" width="40" height="40" as="geometry"/>
                </mxCell>
                <mxCell id="6DAw6io5cLMbZtRBRlxA-105" style="edgeStyle=none;rounded=0;orthogonalLoop=1;jettySize=auto;html=1;exitX=0.5;exitY=1;exitDx=0;exitDy=0;fontSize=8;startSize=1;endSize=1;entryX=0.5;entryY=0;entryDx=0;entryDy=0;" parent="1" source="6DAw6io5cLMbZtRBRlxA-67" target="OmcnHlnqJzyv9202jEzO-76" edge="1">
                    <mxGeometry relative="1" as="geometry">
                        <mxPoint x="259.75862068965523" y="680" as="targetPoint"/>
                    </mxGeometry>
                </mxCell>
                <mxCell id="6DAw6io5cLMbZtRBRlxA-67" value="" style="shape=orEllipse;perimeter=ellipsePerimeter;whiteSpace=wrap;html=1;backgroundOutline=1;aspect=fixed;" parent="1" vertex="1">
                    <mxGeometry x="250" y="610" width="20" height="20" as="geometry"/>
                </mxCell>
                <mxCell id="6DAw6io5cLMbZtRBRlxA-68" style="rounded=0;orthogonalLoop=1;jettySize=auto;html=1;exitX=0.5;exitY=0.5;exitDx=0;exitDy=0;entryX=1;entryY=0.5;entryDx=0;entryDy=0;fontSize=8;endSize=1;startSize=1;" parent="1" source="6DAw6io5cLMbZtRBRlxA-74" target="6DAw6io5cLMbZtRBRlxA-70" edge="1">
                    <mxGeometry relative="1" as="geometry"/>
                </mxCell>
                <mxCell id="6DAw6io5cLMbZtRBRlxA-69" style="edgeStyle=orthogonalEdgeStyle;rounded=0;orthogonalLoop=1;jettySize=auto;html=1;exitX=0;exitY=0.5;exitDx=0;exitDy=0;entryX=1;entryY=0.5;entryDx=0;entryDy=0;fontSize=10;endSize=1;startSize=1;" parent="1" source="6DAw6io5cLMbZtRBRlxA-70" target="6DAw6io5cLMbZtRBRlxA-66" edge="1">
                    <mxGeometry relative="1" as="geometry"/>
                </mxCell>
                <mxCell id="6DAw6io5cLMbZtRBRlxA-70" value="\[\ggg 24\]" style="ellipse;whiteSpace=wrap;html=1;fontSize=8;" parent="1" vertex="1">
                    <mxGeometry x="180" y="570" width="40" height="20" as="geometry"/>
                </mxCell>
                <mxCell id="6DAw6io5cLMbZtRBRlxA-71" style="edgeStyle=orthogonalEdgeStyle;rounded=0;orthogonalLoop=1;jettySize=auto;html=1;exitX=1;exitY=0.5;exitDx=0;exitDy=0;entryX=0;entryY=0.5;entryDx=0;entryDy=0;fontSize=10;endSize=1;startSize=1;" parent="1" source="6DAw6io5cLMbZtRBRlxA-72" target="6DAw6io5cLMbZtRBRlxA-67" edge="1">
                    <mxGeometry relative="1" as="geometry"/>
                </mxCell>
                <mxCell id="6DAw6io5cLMbZtRBRlxA-72" value="\[\ggg 16\]" style="ellipse;whiteSpace=wrap;html=1;fontSize=8;fillColor=#fff2cc;strokeColor=#d6b656;" parent="1" vertex="1">
                    <mxGeometry x="180" y="610" width="40" height="20" as="geometry"/>
                </mxCell>
                <mxCell id="6DAw6io5cLMbZtRBRlxA-73" style="rounded=0;orthogonalLoop=1;jettySize=auto;html=1;exitX=0.5;exitY=0.5;exitDx=0;exitDy=0;entryX=0.5;entryY=0;entryDx=0;entryDy=0;fontSize=10;endSize=1;startSize=1;" parent="1" source="6DAw6io5cLMbZtRBRlxA-74" target="6DAw6io5cLMbZtRBRlxA-67" edge="1">
                    <mxGeometry relative="1" as="geometry"/>
                </mxCell>
                <mxCell id="6DAw6io5cLMbZtRBRlxA-74" value="" style="ellipse;whiteSpace=wrap;html=1;aspect=fixed;rounded=0;strokeWidth=3;fontColor=#5E5E5E;align=right;fillColor=#000000;spacingBottom=1;spacingLeft=1;spacingRight=1;points=[[0.5,0.5]];fontSize=10;" parent="1" vertex="1">
                    <mxGeometry x="259" y="579" width="2" height="2" as="geometry"/>
                </mxCell>
                <mxCell id="6DAw6io5cLMbZtRBRlxA-75" style="rounded=0;orthogonalLoop=1;jettySize=auto;html=1;exitX=0.5;exitY=0.5;exitDx=0;exitDy=0;entryX=0;entryY=0.5;entryDx=0;entryDy=0;fontSize=8;startSize=1;endSize=1;" parent="1" source="6DAw6io5cLMbZtRBRlxA-76" target="6DAw6io5cLMbZtRBRlxA-72" edge="1">
                    <mxGeometry relative="1" as="geometry"/>
                </mxCell>
                <mxCell id="6DAw6io5cLMbZtRBRlxA-76" value="" style="ellipse;whiteSpace=wrap;html=1;aspect=fixed;rounded=0;strokeWidth=3;fontColor=#5E5E5E;align=right;fillColor=#000000;spacingBottom=1;spacingLeft=1;spacingRight=1;points=[[0.5,0.5]];fontSize=10;" parent="1" vertex="1">
                    <mxGeometry x="139" y="619" width="2" height="2" as="geometry"/>
                </mxCell>
                <mxCell id="6DAw6io5cLMbZtRBRlxA-106" style="edgeStyle=none;rounded=0;orthogonalLoop=1;jettySize=auto;html=1;exitX=0.5;exitY=1;exitDx=0;exitDy=0;fontSize=8;startSize=1;endSize=1;entryX=0.5;entryY=0;entryDx=0;entryDy=0;" parent="1" source="6DAw6io5cLMbZtRBRlxA-77" target="OmcnHlnqJzyv9202jEzO-75" edge="1">
                    <mxGeometry relative="1" as="geometry">
                        <mxPoint x="139.75862068965523" y="680" as="targetPoint"/>
                    </mxGeometry>
                </mxCell>
                <mxCell id="6DAw6io5cLMbZtRBRlxA-77" value="" style="shape=orEllipse;perimeter=ellipsePerimeter;whiteSpace=wrap;html=1;backgroundOutline=1;aspect=fixed;" parent="1" vertex="1">
                    <mxGeometry x="130" y="640" width="20" height="20" as="geometry"/>
                </mxCell>
                <mxCell id="6DAw6io5cLMbZtRBRlxA-78" style="edgeStyle=none;rounded=0;orthogonalLoop=1;jettySize=auto;html=1;exitX=0.5;exitY=0.5;exitDx=0;exitDy=0;entryX=0;entryY=0.5;entryDx=0;entryDy=0;fontSize=8;startSize=1;endSize=1;" parent="1" source="6DAw6io5cLMbZtRBRlxA-79" target="6DAw6io5cLMbZtRBRlxA-77" edge="1">
                    <mxGeometry relative="1" as="geometry">
                        <Array as="points">
                            <mxPoint x="100" y="650"/>
                        </Array>
                    </mxGeometry>
                </mxCell>
                <mxCell id="6DAw6io5cLMbZtRBRlxA-79" value="" style="ellipse;whiteSpace=wrap;html=1;aspect=fixed;rounded=0;strokeWidth=3;fontColor=#5E5E5E;align=right;fillColor=#000000;spacingBottom=1;spacingLeft=1;spacingRight=1;points=[[0.5,0.5]];fontSize=10;" parent="1" vertex="1">
                    <mxGeometry x="99" y="649" width="2" height="2" as="geometry"/>
                </mxCell>
                <mxCell id="OmcnHlnqJzyv9202jEzO-75" value="x" style="text;html=1;fillColor=#f5f5f5;align=center;verticalAlign=middle;whiteSpace=wrap;rounded=1;fontSize=12;strokeColor=#666666;fontColor=#333333;" parent="1" vertex="1">
                    <mxGeometry x="130" y="680" width="20" height="20" as="geometry"/>
                </mxCell>
                <mxCell id="OmcnHlnqJzyv9202jEzO-76" value="y" style="text;html=1;fillColor=#f5f5f5;align=center;verticalAlign=middle;whiteSpace=wrap;rounded=1;fontSize=12;spacingBottom=4;strokeColor=#666666;fontColor=#333333;" parent="1" vertex="1">
                    <mxGeometry x="250" y="680" width="20" height="20" as="geometry"/>
                </mxCell>
                <mxCell id="4_UDiaemc8qktKH6cFaf-1" value="" style="rounded=0;whiteSpace=wrap;html=1;fillColor=none;dashed=1;strokeWidth=1;strokeColor=#7EA6E0;" parent="1" vertex="1">
                    <mxGeometry x="80" y="190" width="200" height="115" as="geometry"/>
                </mxCell>
                <mxCell id="Qr886Vd2-Phmb-Ej6Il7-5" value="" style="rounded=0;whiteSpace=wrap;html=1;fillColor=none;dashed=1;strokeWidth=1;strokeColor=#7EA6E0;" vertex="1" parent="1">
                    <mxGeometry x="80" y="310" width="200" height="115" as="geometry"/>
                </mxCell>
                <mxCell id="Qr886Vd2-Phmb-Ej6Il7-6" value="" style="rounded=0;whiteSpace=wrap;html=1;fillColor=none;dashed=1;strokeWidth=1;strokeColor=#7EA6E0;" vertex="1" parent="1">
                    <mxGeometry x="80" y="430" width="200" height="115" as="geometry"/>
                </mxCell>
                <mxCell id="Qr886Vd2-Phmb-Ej6Il7-7" value="" style="rounded=0;whiteSpace=wrap;html=1;fillColor=none;dashed=1;strokeWidth=1;strokeColor=#7EA6E0;" vertex="1" parent="1">
                    <mxGeometry x="80" y="550" width="200" height="115" as="geometry"/>
                </mxCell>
            </root>
        </mxGraphModel>
    </diagram>
    <diagram id="zNdU9zoTNyPxpy27rFkC" name="Page-2">
        <mxGraphModel dx="544" dy="638" grid="1" gridSize="10" guides="1" tooltips="1" connect="1" arrows="1" fold="1" page="1" pageScale="1" pageWidth="850" pageHeight="1100" math="1" shadow="0">
            <root>
                <mxCell id="XOg4RDr-ecWqbsroLupD-0"/>
                <mxCell id="XOg4RDr-ecWqbsroLupD-1" parent="XOg4RDr-ecWqbsroLupD-0"/>
                <mxCell id="XOg4RDr-ecWqbsroLupD-2" style="edgeStyle=none;rounded=0;orthogonalLoop=1;jettySize=auto;html=1;exitX=0.5;exitY=0.5;exitDx=0;exitDy=0;entryX=0.5;entryY=0;entryDx=0;entryDy=0;fontSize=8;startSize=1;endSize=1;" parent="XOg4RDr-ecWqbsroLupD-1" source="XOg4RDr-ecWqbsroLupD-18" target="XOg4RDr-ecWqbsroLupD-20" edge="1">
                    <mxGeometry relative="1" as="geometry"/>
                </mxCell>
                <mxCell id="XOg4RDr-ecWqbsroLupD-76" style="edgeStyle=none;rounded=0;orthogonalLoop=1;jettySize=auto;html=1;exitX=0.5;exitY=1;exitDx=0;exitDy=0;entryX=0.5;entryY=0.5;entryDx=0;entryDy=0;fontSize=10;startSize=1;endSize=1;endFill=0;endArrow=none;fillColor=#e51400;strokeColor=#B20000;" parent="XOg4RDr-ecWqbsroLupD-1" source="XOg4RDr-ecWqbsroLupD-3" target="XOg4RDr-ecWqbsroLupD-18" edge="1">
                    <mxGeometry relative="1" as="geometry"/>
                </mxCell>
                <mxCell id="XOg4RDr-ecWqbsroLupD-3" value="`+`" style="rounded=0;whiteSpace=wrap;html=1;fontSize=19;fillColor=#e51400;strokeColor=#B20000;fontColor=#ffffff;" parent="XOg4RDr-ecWqbsroLupD-1" vertex="1">
                    <mxGeometry x="120" y="200" width="40" height="40" as="geometry"/>
                </mxCell>
                <mxCell id="XOg4RDr-ecWqbsroLupD-4" style="edgeStyle=none;rounded=0;orthogonalLoop=1;jettySize=auto;html=1;exitX=0.5;exitY=1;exitDx=0;exitDy=0;entryX=0.5;entryY=0.5;entryDx=0;entryDy=0;fontSize=10;startSize=1;endSize=1;endFill=0;endArrow=none;fillColor=#e51400;strokeColor=#B20000;" parent="XOg4RDr-ecWqbsroLupD-1" source="XOg4RDr-ecWqbsroLupD-5" target="XOg4RDr-ecWqbsroLupD-35" edge="1">
                    <mxGeometry relative="1" as="geometry"/>
                </mxCell>
                <mxCell id="XOg4RDr-ecWqbsroLupD-5" value="" style="shape=orEllipse;perimeter=ellipsePerimeter;whiteSpace=wrap;html=1;backgroundOutline=1;aspect=fixed;fillColor=#e51400;strokeColor=#B20000;fontColor=#ffffff;" parent="XOg4RDr-ecWqbsroLupD-1" vertex="1">
                    <mxGeometry x="250" y="250" width="20" height="20" as="geometry"/>
                </mxCell>
                <mxCell id="XOg4RDr-ecWqbsroLupD-6" style="edgeStyle=orthogonalEdgeStyle;rounded=0;orthogonalLoop=1;jettySize=auto;html=1;exitX=0.5;exitY=1;exitDx=0;exitDy=0;entryX=0.5;entryY=0;entryDx=0;entryDy=0;fontSize=8;endSize=1;startSize=1;fillColor=#e51400;strokeColor=#B20000;" parent="XOg4RDr-ecWqbsroLupD-1" source="XOg4RDr-ecWqbsroLupD-7" target="XOg4RDr-ecWqbsroLupD-3" edge="1">
                    <mxGeometry relative="1" as="geometry"/>
                </mxCell>
                <mxCell id="XOg4RDr-ecWqbsroLupD-7" value="x" style="text;html=1;fillColor=#e51400;align=center;verticalAlign=middle;whiteSpace=wrap;rounded=1;fontSize=12;strokeColor=#B20000;fontColor=#ffffff;" parent="XOg4RDr-ecWqbsroLupD-1" vertex="1">
                    <mxGeometry x="130" y="160" width="20" height="20" as="geometry"/>
                </mxCell>
                <mxCell id="XOg4RDr-ecWqbsroLupD-8" style="rounded=0;orthogonalLoop=1;jettySize=auto;html=1;exitX=0.5;exitY=0.5;exitDx=0;exitDy=0;entryX=1;entryY=0.5;entryDx=0;entryDy=0;fontSize=8;endSize=1;startSize=1;" parent="XOg4RDr-ecWqbsroLupD-1" source="XOg4RDr-ecWqbsroLupD-16" target="XOg4RDr-ecWqbsroLupD-12" edge="1">
                    <mxGeometry relative="1" as="geometry"/>
                </mxCell>
                <mxCell id="XOg4RDr-ecWqbsroLupD-9" style="edgeStyle=none;rounded=0;orthogonalLoop=1;jettySize=auto;html=1;exitX=0.5;exitY=1;exitDx=0;exitDy=0;entryX=0.5;entryY=0.5;entryDx=0;entryDy=0;fontSize=10;startSize=1;endSize=1;endFill=0;endArrow=none;" parent="XOg4RDr-ecWqbsroLupD-1" source="XOg4RDr-ecWqbsroLupD-10" target="XOg4RDr-ecWqbsroLupD-16" edge="1">
                    <mxGeometry relative="1" as="geometry"/>
                </mxCell>
                <mxCell id="XOg4RDr-ecWqbsroLupD-10" value="y" style="text;html=1;fillColor=#e51400;align=center;verticalAlign=middle;whiteSpace=wrap;rounded=1;fontSize=12;spacingBottom=4;strokeColor=#B20000;fontColor=#ffffff;" parent="XOg4RDr-ecWqbsroLupD-1" vertex="1">
                    <mxGeometry x="250" y="160" width="20" height="20" as="geometry"/>
                </mxCell>
                <mxCell id="XOg4RDr-ecWqbsroLupD-11" style="edgeStyle=orthogonalEdgeStyle;rounded=0;orthogonalLoop=1;jettySize=auto;html=1;exitX=0;exitY=0.5;exitDx=0;exitDy=0;entryX=1;entryY=0.5;entryDx=0;entryDy=0;fontSize=10;endSize=1;startSize=1;" parent="XOg4RDr-ecWqbsroLupD-1" source="XOg4RDr-ecWqbsroLupD-12" target="XOg4RDr-ecWqbsroLupD-3" edge="1">
                    <mxGeometry relative="1" as="geometry"/>
                </mxCell>
                <mxCell id="XOg4RDr-ecWqbsroLupD-12" value="\[\ggg 31\]" style="ellipse;whiteSpace=wrap;html=1;fontSize=8;" parent="XOg4RDr-ecWqbsroLupD-1" vertex="1">
                    <mxGeometry x="180" y="210" width="40" height="20" as="geometry"/>
                </mxCell>
                <mxCell id="XOg4RDr-ecWqbsroLupD-13" style="edgeStyle=orthogonalEdgeStyle;rounded=0;orthogonalLoop=1;jettySize=auto;html=1;exitX=1;exitY=0.5;exitDx=0;exitDy=0;entryX=0;entryY=0.5;entryDx=0;entryDy=0;fontSize=10;endSize=1;startSize=1;fillColor=#e51400;strokeColor=#B20000;" parent="XOg4RDr-ecWqbsroLupD-1" source="XOg4RDr-ecWqbsroLupD-14" target="XOg4RDr-ecWqbsroLupD-5" edge="1">
                    <mxGeometry relative="1" as="geometry"/>
                </mxCell>
                <mxCell id="XOg4RDr-ecWqbsroLupD-14" value="\[\ggg 24\]" style="ellipse;whiteSpace=wrap;html=1;fontSize=8;" parent="XOg4RDr-ecWqbsroLupD-1" vertex="1">
                    <mxGeometry x="180" y="250" width="40" height="20" as="geometry"/>
                </mxCell>
                <mxCell id="XOg4RDr-ecWqbsroLupD-15" style="rounded=0;orthogonalLoop=1;jettySize=auto;html=1;exitX=0.5;exitY=0.5;exitDx=0;exitDy=0;entryX=0.5;entryY=0;entryDx=0;entryDy=0;fontSize=10;endSize=1;startSize=1;" parent="XOg4RDr-ecWqbsroLupD-1" source="XOg4RDr-ecWqbsroLupD-16" target="XOg4RDr-ecWqbsroLupD-5" edge="1">
                    <mxGeometry relative="1" as="geometry"/>
                </mxCell>
                <mxCell id="XOg4RDr-ecWqbsroLupD-16" value="" style="ellipse;whiteSpace=wrap;html=1;aspect=fixed;rounded=0;strokeWidth=3;fontColor=#5E5E5E;align=right;fillColor=#000000;spacingBottom=1;spacingLeft=1;spacingRight=1;points=[[0.5,0.5]];fontSize=10;" parent="XOg4RDr-ecWqbsroLupD-1" vertex="1">
                    <mxGeometry x="259" y="219" width="2" height="2" as="geometry"/>
                </mxCell>
                <mxCell id="XOg4RDr-ecWqbsroLupD-17" style="rounded=0;orthogonalLoop=1;jettySize=auto;html=1;exitX=0.5;exitY=0.5;exitDx=0;exitDy=0;entryX=0;entryY=0.5;entryDx=0;entryDy=0;fontSize=8;startSize=1;endSize=1;fillColor=#e51400;strokeColor=#B20000;" parent="XOg4RDr-ecWqbsroLupD-1" source="XOg4RDr-ecWqbsroLupD-18" target="XOg4RDr-ecWqbsroLupD-14" edge="1">
                    <mxGeometry relative="1" as="geometry"/>
                </mxCell>
                <mxCell id="XOg4RDr-ecWqbsroLupD-18" value="" style="ellipse;whiteSpace=wrap;html=1;aspect=fixed;rounded=0;strokeWidth=3;fontColor=#ffffff;align=right;fillColor=#e51400;spacingBottom=1;spacingLeft=1;spacingRight=1;points=[[0.5,0.5]];fontSize=10;strokeColor=#B20000;" parent="XOg4RDr-ecWqbsroLupD-1" vertex="1">
                    <mxGeometry x="139" y="259" width="2" height="2" as="geometry"/>
                </mxCell>
                <mxCell id="XOg4RDr-ecWqbsroLupD-19" style="edgeStyle=none;rounded=0;orthogonalLoop=1;jettySize=auto;html=1;exitX=0.5;exitY=1;exitDx=0;exitDy=0;entryX=0.5;entryY=0;entryDx=0;entryDy=0;fontSize=8;startSize=1;endSize=1;" parent="XOg4RDr-ecWqbsroLupD-1" source="XOg4RDr-ecWqbsroLupD-20" target="XOg4RDr-ecWqbsroLupD-26" edge="1">
                    <mxGeometry relative="1" as="geometry"/>
                </mxCell>
                <mxCell id="XOg4RDr-ecWqbsroLupD-20" value="" style="shape=orEllipse;perimeter=ellipsePerimeter;whiteSpace=wrap;html=1;backgroundOutline=1;aspect=fixed;" parent="XOg4RDr-ecWqbsroLupD-1" vertex="1">
                    <mxGeometry x="130" y="280" width="20" height="20" as="geometry"/>
                </mxCell>
                <mxCell id="XOg4RDr-ecWqbsroLupD-21" style="edgeStyle=none;rounded=0;orthogonalLoop=1;jettySize=auto;html=1;exitX=0.5;exitY=0.5;exitDx=0;exitDy=0;entryX=0;entryY=0.5;entryDx=0;entryDy=0;fontSize=8;startSize=1;endSize=1;" parent="XOg4RDr-ecWqbsroLupD-1" source="XOg4RDr-ecWqbsroLupD-24" target="XOg4RDr-ecWqbsroLupD-20" edge="1">
                    <mxGeometry relative="1" as="geometry">
                        <Array as="points">
                            <mxPoint x="100" y="290"/>
                        </Array>
                    </mxGeometry>
                </mxCell>
                <mxCell id="XOg4RDr-ecWqbsroLupD-22" style="edgeStyle=none;rounded=0;orthogonalLoop=1;jettySize=auto;html=1;exitX=0.5;exitY=1;exitDx=0;exitDy=0;entryX=0.5;entryY=0.5;entryDx=0;entryDy=0;fontSize=10;startSize=1;endSize=1;endArrow=none;endFill=0;" parent="XOg4RDr-ecWqbsroLupD-1" source="XOg4RDr-ecWqbsroLupD-23" target="XOg4RDr-ecWqbsroLupD-75" edge="1">
                    <mxGeometry relative="1" as="geometry"/>
                </mxCell>
                <mxCell id="XOg4RDr-ecWqbsroLupD-23" value="c" style="text;html=1;fillColor=#f5f5f5;align=center;verticalAlign=middle;whiteSpace=wrap;rounded=1;fontSize=12;strokeColor=#666666;fontColor=#333333;" parent="XOg4RDr-ecWqbsroLupD-1" vertex="1">
                    <mxGeometry x="90" y="160" width="20" height="20" as="geometry"/>
                </mxCell>
                <mxCell id="XOg4RDr-ecWqbsroLupD-24" value="" style="ellipse;whiteSpace=wrap;html=1;aspect=fixed;rounded=0;strokeWidth=3;fontColor=#5E5E5E;align=right;fillColor=#000000;spacingBottom=1;spacingLeft=1;spacingRight=1;points=[[0.5,0.5]];fontSize=10;" parent="XOg4RDr-ecWqbsroLupD-1" vertex="1">
                    <mxGeometry x="99" y="289" width="2" height="2" as="geometry"/>
                </mxCell>
                <mxCell id="XOg4RDr-ecWqbsroLupD-25" style="edgeStyle=none;rounded=0;orthogonalLoop=1;jettySize=auto;html=1;exitX=0.5;exitY=0.5;exitDx=0;exitDy=0;entryX=0.5;entryY=0;entryDx=0;entryDy=0;fontSize=8;startSize=1;endSize=1;fillColor=#e51400;strokeColor=#B20000;" parent="XOg4RDr-ecWqbsroLupD-1" source="XOg4RDr-ecWqbsroLupD-37" target="XOg4RDr-ecWqbsroLupD-39" edge="1">
                    <mxGeometry relative="1" as="geometry"/>
                </mxCell>
                <mxCell id="XOg4RDr-ecWqbsroLupD-77" style="edgeStyle=none;rounded=0;orthogonalLoop=1;jettySize=auto;html=1;exitX=0.5;exitY=1;exitDx=0;exitDy=0;fontSize=10;startSize=1;endSize=1;endFill=0;endArrow=none;fillColor=#e51400;strokeColor=#B20000;" parent="XOg4RDr-ecWqbsroLupD-1" source="XOg4RDr-ecWqbsroLupD-26" edge="1">
                    <mxGeometry relative="1" as="geometry">
                        <mxPoint x="140.1428571428571" y="380" as="targetPoint"/>
                    </mxGeometry>
                </mxCell>
                <mxCell id="XOg4RDr-ecWqbsroLupD-26" value="`+`" style="rounded=0;whiteSpace=wrap;html=1;fontSize=19;fillColor=#e51400;strokeColor=#B20000;fontColor=#ffffff;" parent="XOg4RDr-ecWqbsroLupD-1" vertex="1">
                    <mxGeometry x="120" y="320" width="40" height="40" as="geometry"/>
                </mxCell>
                <mxCell id="XOg4RDr-ecWqbsroLupD-27" style="edgeStyle=none;rounded=0;orthogonalLoop=1;jettySize=auto;html=1;exitX=0.5;exitY=1;exitDx=0;exitDy=0;entryX=0.5;entryY=0.5;entryDx=0;entryDy=0;fontSize=10;startSize=1;endSize=1;endFill=0;endArrow=none;fillColor=#e51400;strokeColor=#B20000;" parent="XOg4RDr-ecWqbsroLupD-1" source="XOg4RDr-ecWqbsroLupD-28" target="XOg4RDr-ecWqbsroLupD-52" edge="1">
                    <mxGeometry relative="1" as="geometry"/>
                </mxCell>
                <mxCell id="XOg4RDr-ecWqbsroLupD-28" value="" style="shape=orEllipse;perimeter=ellipsePerimeter;whiteSpace=wrap;html=1;backgroundOutline=1;aspect=fixed;fillColor=#e51400;strokeColor=#B20000;fontColor=#ffffff;" parent="XOg4RDr-ecWqbsroLupD-1" vertex="1">
                    <mxGeometry x="250" y="370" width="20" height="20" as="geometry"/>
                </mxCell>
                <mxCell id="XOg4RDr-ecWqbsroLupD-29" style="rounded=0;orthogonalLoop=1;jettySize=auto;html=1;exitX=0.5;exitY=0.5;exitDx=0;exitDy=0;entryX=1;entryY=0.5;entryDx=0;entryDy=0;fontSize=8;endSize=1;startSize=1;fillColor=#e51400;strokeColor=#B20000;" parent="XOg4RDr-ecWqbsroLupD-1" source="XOg4RDr-ecWqbsroLupD-35" target="XOg4RDr-ecWqbsroLupD-31" edge="1">
                    <mxGeometry relative="1" as="geometry"/>
                </mxCell>
                <mxCell id="XOg4RDr-ecWqbsroLupD-30" style="edgeStyle=orthogonalEdgeStyle;rounded=0;orthogonalLoop=1;jettySize=auto;html=1;exitX=0;exitY=0.5;exitDx=0;exitDy=0;entryX=1;entryY=0.5;entryDx=0;entryDy=0;fontSize=10;endSize=1;startSize=1;fillColor=#e51400;strokeColor=#B20000;" parent="XOg4RDr-ecWqbsroLupD-1" source="XOg4RDr-ecWqbsroLupD-31" target="XOg4RDr-ecWqbsroLupD-26" edge="1">
                    <mxGeometry relative="1" as="geometry"/>
                </mxCell>
                <mxCell id="XOg4RDr-ecWqbsroLupD-31" value="\[\ggg 17\]" style="ellipse;whiteSpace=wrap;html=1;fontSize=8;" parent="XOg4RDr-ecWqbsroLupD-1" vertex="1">
                    <mxGeometry x="180" y="330" width="40" height="20" as="geometry"/>
                </mxCell>
                <mxCell id="XOg4RDr-ecWqbsroLupD-32" style="edgeStyle=orthogonalEdgeStyle;rounded=0;orthogonalLoop=1;jettySize=auto;html=1;exitX=1;exitY=0.5;exitDx=0;exitDy=0;entryX=0;entryY=0.5;entryDx=0;entryDy=0;fontSize=10;endSize=1;startSize=1;" parent="XOg4RDr-ecWqbsroLupD-1" source="XOg4RDr-ecWqbsroLupD-33" target="XOg4RDr-ecWqbsroLupD-28" edge="1">
                    <mxGeometry relative="1" as="geometry"/>
                </mxCell>
                <mxCell id="XOg4RDr-ecWqbsroLupD-33" value="\[\ggg 17\]" style="ellipse;whiteSpace=wrap;html=1;fontSize=8;" parent="XOg4RDr-ecWqbsroLupD-1" vertex="1">
                    <mxGeometry x="180" y="370" width="40" height="20" as="geometry"/>
                </mxCell>
                <mxCell id="XOg4RDr-ecWqbsroLupD-34" style="rounded=0;orthogonalLoop=1;jettySize=auto;html=1;exitX=0.5;exitY=0.5;exitDx=0;exitDy=0;entryX=0.5;entryY=0;entryDx=0;entryDy=0;fontSize=10;endSize=1;startSize=1;fillColor=#e51400;strokeColor=#B20000;" parent="XOg4RDr-ecWqbsroLupD-1" source="XOg4RDr-ecWqbsroLupD-35" target="XOg4RDr-ecWqbsroLupD-28" edge="1">
                    <mxGeometry relative="1" as="geometry"/>
                </mxCell>
                <mxCell id="XOg4RDr-ecWqbsroLupD-35" value="" style="ellipse;whiteSpace=wrap;html=1;aspect=fixed;rounded=0;strokeWidth=3;fontColor=#5E5E5E;align=right;fillColor=#000000;spacingBottom=1;spacingLeft=1;spacingRight=1;points=[[0.5,0.5]];fontSize=10;" parent="XOg4RDr-ecWqbsroLupD-1" vertex="1">
                    <mxGeometry x="259" y="339" width="2" height="2" as="geometry"/>
                </mxCell>
                <mxCell id="XOg4RDr-ecWqbsroLupD-36" style="rounded=0;orthogonalLoop=1;jettySize=auto;html=1;exitX=0.5;exitY=0.5;exitDx=0;exitDy=0;entryX=0;entryY=0.5;entryDx=0;entryDy=0;fontSize=8;startSize=1;endSize=1;" parent="XOg4RDr-ecWqbsroLupD-1" source="XOg4RDr-ecWqbsroLupD-37" target="XOg4RDr-ecWqbsroLupD-33" edge="1">
                    <mxGeometry relative="1" as="geometry"/>
                </mxCell>
                <mxCell id="XOg4RDr-ecWqbsroLupD-37" value="" style="ellipse;whiteSpace=wrap;html=1;aspect=fixed;rounded=0;strokeWidth=3;fontColor=#ffffff;align=right;fillColor=#e51400;spacingBottom=1;spacingLeft=1;spacingRight=1;points=[[0.5,0.5]];fontSize=10;strokeColor=#B20000;" parent="XOg4RDr-ecWqbsroLupD-1" vertex="1">
                    <mxGeometry x="139" y="379" width="2" height="2" as="geometry"/>
                </mxCell>
                <mxCell id="XOg4RDr-ecWqbsroLupD-38" style="edgeStyle=none;rounded=0;orthogonalLoop=1;jettySize=auto;html=1;exitX=0.5;exitY=1;exitDx=0;exitDy=0;entryX=0.5;entryY=0;entryDx=0;entryDy=0;fontSize=8;startSize=1;endSize=1;" parent="XOg4RDr-ecWqbsroLupD-1" source="XOg4RDr-ecWqbsroLupD-39" target="XOg4RDr-ecWqbsroLupD-43" edge="1">
                    <mxGeometry relative="1" as="geometry"/>
                </mxCell>
                <mxCell id="XOg4RDr-ecWqbsroLupD-39" value="" style="shape=orEllipse;perimeter=ellipsePerimeter;whiteSpace=wrap;html=1;backgroundOutline=1;aspect=fixed;" parent="XOg4RDr-ecWqbsroLupD-1" vertex="1">
                    <mxGeometry x="130" y="400" width="20" height="20" as="geometry"/>
                </mxCell>
                <mxCell id="XOg4RDr-ecWqbsroLupD-40" style="edgeStyle=none;rounded=0;orthogonalLoop=1;jettySize=auto;html=1;exitX=0.5;exitY=0.5;exitDx=0;exitDy=0;entryX=0;entryY=0.5;entryDx=0;entryDy=0;fontSize=8;startSize=1;endSize=1;" parent="XOg4RDr-ecWqbsroLupD-1" source="XOg4RDr-ecWqbsroLupD-41" target="XOg4RDr-ecWqbsroLupD-39" edge="1">
                    <mxGeometry relative="1" as="geometry">
                        <Array as="points">
                            <mxPoint x="100" y="410"/>
                        </Array>
                    </mxGeometry>
                </mxCell>
                <mxCell id="XOg4RDr-ecWqbsroLupD-41" value="" style="ellipse;whiteSpace=wrap;html=1;aspect=fixed;rounded=0;strokeWidth=3;fontColor=#5E5E5E;align=right;fillColor=#000000;spacingBottom=1;spacingLeft=1;spacingRight=1;points=[[0.5,0.5]];fontSize=10;" parent="XOg4RDr-ecWqbsroLupD-1" vertex="1">
                    <mxGeometry x="99" y="409" width="2" height="2" as="geometry"/>
                </mxCell>
                <mxCell id="XOg4RDr-ecWqbsroLupD-42" style="edgeStyle=none;rounded=0;orthogonalLoop=1;jettySize=auto;html=1;exitX=0.5;exitY=0.5;exitDx=0;exitDy=0;entryX=0.5;entryY=0;entryDx=0;entryDy=0;fontSize=8;startSize=1;endSize=1;" parent="XOg4RDr-ecWqbsroLupD-1" source="XOg4RDr-ecWqbsroLupD-54" target="XOg4RDr-ecWqbsroLupD-56" edge="1">
                    <mxGeometry relative="1" as="geometry"/>
                </mxCell>
                <mxCell id="XOg4RDr-ecWqbsroLupD-78" style="edgeStyle=none;rounded=0;orthogonalLoop=1;jettySize=auto;html=1;exitX=0.5;exitY=1;exitDx=0;exitDy=0;entryX=0.5;entryY=0.5;entryDx=0;entryDy=0;fontSize=10;startSize=1;endSize=1;endFill=0;endArrow=none;fillColor=#e51400;strokeColor=#B20000;" parent="XOg4RDr-ecWqbsroLupD-1" source="XOg4RDr-ecWqbsroLupD-43" target="XOg4RDr-ecWqbsroLupD-54" edge="1">
                    <mxGeometry relative="1" as="geometry"/>
                </mxCell>
                <mxCell id="XOg4RDr-ecWqbsroLupD-43" value="`+`" style="rounded=0;whiteSpace=wrap;html=1;fontSize=19;fillColor=#e51400;strokeColor=#B20000;fontColor=#ffffff;" parent="XOg4RDr-ecWqbsroLupD-1" vertex="1">
                    <mxGeometry x="120" y="440" width="40" height="40" as="geometry"/>
                </mxCell>
                <mxCell id="XOg4RDr-ecWqbsroLupD-44" style="edgeStyle=none;rounded=0;orthogonalLoop=1;jettySize=auto;html=1;exitX=0.5;exitY=1;exitDx=0;exitDy=0;entryX=0.5;entryY=0.5;entryDx=0;entryDy=0;fontSize=10;startSize=1;endSize=1;endFill=0;endArrow=none;fillColor=#e51400;strokeColor=#B20000;" parent="XOg4RDr-ecWqbsroLupD-1" source="XOg4RDr-ecWqbsroLupD-45" target="XOg4RDr-ecWqbsroLupD-69" edge="1">
                    <mxGeometry relative="1" as="geometry"/>
                </mxCell>
                <mxCell id="XOg4RDr-ecWqbsroLupD-45" value="" style="shape=orEllipse;perimeter=ellipsePerimeter;whiteSpace=wrap;html=1;backgroundOutline=1;aspect=fixed;fillColor=#e51400;strokeColor=#B20000;fontColor=#ffffff;" parent="XOg4RDr-ecWqbsroLupD-1" vertex="1">
                    <mxGeometry x="250" y="490" width="20" height="20" as="geometry"/>
                </mxCell>
                <mxCell id="XOg4RDr-ecWqbsroLupD-46" style="rounded=0;orthogonalLoop=1;jettySize=auto;html=1;exitX=0.5;exitY=0.5;exitDx=0;exitDy=0;entryX=1;entryY=0.5;entryDx=0;entryDy=0;fontSize=8;endSize=1;startSize=1;fillColor=#e51400;strokeColor=#B20000;" parent="XOg4RDr-ecWqbsroLupD-1" source="XOg4RDr-ecWqbsroLupD-52" target="XOg4RDr-ecWqbsroLupD-48" edge="1">
                    <mxGeometry relative="1" as="geometry"/>
                </mxCell>
                <mxCell id="XOg4RDr-ecWqbsroLupD-47" style="edgeStyle=orthogonalEdgeStyle;rounded=0;orthogonalLoop=1;jettySize=auto;html=1;exitX=0;exitY=0.5;exitDx=0;exitDy=0;entryX=1;entryY=0.5;entryDx=0;entryDy=0;fontSize=10;endSize=1;startSize=1;fillColor=#e51400;strokeColor=#B20000;" parent="XOg4RDr-ecWqbsroLupD-1" source="XOg4RDr-ecWqbsroLupD-48" target="XOg4RDr-ecWqbsroLupD-43" edge="1">
                    <mxGeometry relative="1" as="geometry"/>
                </mxCell>
                <mxCell id="XOg4RDr-ecWqbsroLupD-48" value="\[\ggg 0\]" style="ellipse;whiteSpace=wrap;html=1;fontSize=8;" parent="XOg4RDr-ecWqbsroLupD-1" vertex="1">
                    <mxGeometry x="180" y="450" width="40" height="20" as="geometry"/>
                </mxCell>
                <mxCell id="XOg4RDr-ecWqbsroLupD-49" style="edgeStyle=orthogonalEdgeStyle;rounded=0;orthogonalLoop=1;jettySize=auto;html=1;exitX=1;exitY=0.5;exitDx=0;exitDy=0;entryX=0;entryY=0.5;entryDx=0;entryDy=0;fontSize=10;endSize=1;startSize=1;fillColor=#e51400;strokeColor=#B20000;" parent="XOg4RDr-ecWqbsroLupD-1" source="XOg4RDr-ecWqbsroLupD-50" target="XOg4RDr-ecWqbsroLupD-45" edge="1">
                    <mxGeometry relative="1" as="geometry"/>
                </mxCell>
                <mxCell id="XOg4RDr-ecWqbsroLupD-50" value="\[\ggg 31\]" style="ellipse;whiteSpace=wrap;html=1;fontSize=8;" parent="XOg4RDr-ecWqbsroLupD-1" vertex="1">
                    <mxGeometry x="180" y="490" width="40" height="20" as="geometry"/>
                </mxCell>
                <mxCell id="XOg4RDr-ecWqbsroLupD-51" style="rounded=0;orthogonalLoop=1;jettySize=auto;html=1;exitX=0.5;exitY=0.5;exitDx=0;exitDy=0;entryX=0.5;entryY=0;entryDx=0;entryDy=0;fontSize=10;endSize=1;startSize=1;" parent="XOg4RDr-ecWqbsroLupD-1" source="XOg4RDr-ecWqbsroLupD-52" target="XOg4RDr-ecWqbsroLupD-45" edge="1">
                    <mxGeometry relative="1" as="geometry"/>
                </mxCell>
                <mxCell id="XOg4RDr-ecWqbsroLupD-52" value="" style="ellipse;whiteSpace=wrap;html=1;aspect=fixed;rounded=0;strokeWidth=3;fontColor=#5E5E5E;align=right;fillColor=#000000;spacingBottom=1;spacingLeft=1;spacingRight=1;points=[[0.5,0.5]];fontSize=10;" parent="XOg4RDr-ecWqbsroLupD-1" vertex="1">
                    <mxGeometry x="259" y="459" width="2" height="2" as="geometry"/>
                </mxCell>
                <mxCell id="XOg4RDr-ecWqbsroLupD-53" style="rounded=0;orthogonalLoop=1;jettySize=auto;html=1;exitX=0.5;exitY=0.5;exitDx=0;exitDy=0;entryX=0;entryY=0.5;entryDx=0;entryDy=0;fontSize=8;startSize=1;endSize=1;fillColor=#e51400;strokeColor=#B20000;" parent="XOg4RDr-ecWqbsroLupD-1" source="XOg4RDr-ecWqbsroLupD-54" target="XOg4RDr-ecWqbsroLupD-50" edge="1">
                    <mxGeometry relative="1" as="geometry"/>
                </mxCell>
                <mxCell id="XOg4RDr-ecWqbsroLupD-54" value="" style="ellipse;whiteSpace=wrap;html=1;aspect=fixed;rounded=0;strokeWidth=3;fontColor=#ffffff;align=right;fillColor=#e51400;spacingBottom=1;spacingLeft=1;spacingRight=1;points=[[0.5,0.5]];fontSize=10;strokeColor=#B20000;" parent="XOg4RDr-ecWqbsroLupD-1" vertex="1">
                    <mxGeometry x="139" y="499" width="2" height="2" as="geometry"/>
                </mxCell>
                <mxCell id="XOg4RDr-ecWqbsroLupD-55" style="edgeStyle=none;rounded=0;orthogonalLoop=1;jettySize=auto;html=1;exitX=0.5;exitY=1;exitDx=0;exitDy=0;entryX=0.5;entryY=0;entryDx=0;entryDy=0;fontSize=8;startSize=1;endSize=1;" parent="XOg4RDr-ecWqbsroLupD-1" source="XOg4RDr-ecWqbsroLupD-56" target="XOg4RDr-ecWqbsroLupD-60" edge="1">
                    <mxGeometry relative="1" as="geometry"/>
                </mxCell>
                <mxCell id="XOg4RDr-ecWqbsroLupD-56" value="" style="shape=orEllipse;perimeter=ellipsePerimeter;whiteSpace=wrap;html=1;backgroundOutline=1;aspect=fixed;" parent="XOg4RDr-ecWqbsroLupD-1" vertex="1">
                    <mxGeometry x="130" y="520" width="20" height="20" as="geometry"/>
                </mxCell>
                <mxCell id="XOg4RDr-ecWqbsroLupD-57" style="edgeStyle=none;rounded=0;orthogonalLoop=1;jettySize=auto;html=1;exitX=0.5;exitY=0.5;exitDx=0;exitDy=0;entryX=0;entryY=0.5;entryDx=0;entryDy=0;fontSize=8;startSize=1;endSize=1;" parent="XOg4RDr-ecWqbsroLupD-1" source="XOg4RDr-ecWqbsroLupD-58" target="XOg4RDr-ecWqbsroLupD-56" edge="1">
                    <mxGeometry relative="1" as="geometry">
                        <Array as="points">
                            <mxPoint x="100" y="530"/>
                        </Array>
                    </mxGeometry>
                </mxCell>
                <mxCell id="XOg4RDr-ecWqbsroLupD-58" value="" style="ellipse;whiteSpace=wrap;html=1;aspect=fixed;rounded=0;strokeWidth=3;fontColor=#5E5E5E;align=right;fillColor=#000000;spacingBottom=1;spacingLeft=1;spacingRight=1;points=[[0.5,0.5]];fontSize=10;" parent="XOg4RDr-ecWqbsroLupD-1" vertex="1">
                    <mxGeometry x="99" y="529" width="2" height="2" as="geometry"/>
                </mxCell>
                <mxCell id="XOg4RDr-ecWqbsroLupD-59" style="edgeStyle=none;rounded=0;orthogonalLoop=1;jettySize=auto;html=1;exitX=0.5;exitY=0.5;exitDx=0;exitDy=0;entryX=0.5;entryY=0;entryDx=0;entryDy=0;fontSize=8;startSize=1;endSize=1;" parent="XOg4RDr-ecWqbsroLupD-1" source="XOg4RDr-ecWqbsroLupD-71" target="XOg4RDr-ecWqbsroLupD-73" edge="1">
                    <mxGeometry relative="1" as="geometry"/>
                </mxCell>
                <mxCell id="XOg4RDr-ecWqbsroLupD-79" style="edgeStyle=none;rounded=0;orthogonalLoop=1;jettySize=auto;html=1;exitX=0.5;exitY=1;exitDx=0;exitDy=0;entryX=0.5;entryY=0.5;entryDx=0;entryDy=0;fontSize=10;startSize=1;endSize=1;endFill=0;endArrow=none;fillColor=#e51400;strokeColor=#B20000;" parent="XOg4RDr-ecWqbsroLupD-1" source="XOg4RDr-ecWqbsroLupD-60" target="XOg4RDr-ecWqbsroLupD-71" edge="1">
                    <mxGeometry relative="1" as="geometry"/>
                </mxCell>
                <mxCell id="XOg4RDr-ecWqbsroLupD-60" value="`+`" style="rounded=0;whiteSpace=wrap;html=1;fontSize=19;fillColor=#e51400;strokeColor=#B20000;fontColor=#ffffff;" parent="XOg4RDr-ecWqbsroLupD-1" vertex="1">
                    <mxGeometry x="120" y="560" width="40" height="40" as="geometry"/>
                </mxCell>
                <mxCell id="XOg4RDr-ecWqbsroLupD-61" style="edgeStyle=none;rounded=0;orthogonalLoop=1;jettySize=auto;html=1;exitX=0.5;exitY=1;exitDx=0;exitDy=0;fontSize=8;startSize=1;endSize=1;fillColor=#e51400;strokeColor=#B20000;" parent="XOg4RDr-ecWqbsroLupD-1" source="XOg4RDr-ecWqbsroLupD-62" edge="1">
                    <mxGeometry relative="1" as="geometry">
                        <mxPoint x="259.75862068965523" y="680" as="targetPoint"/>
                    </mxGeometry>
                </mxCell>
                <mxCell id="XOg4RDr-ecWqbsroLupD-62" value="" style="shape=orEllipse;perimeter=ellipsePerimeter;whiteSpace=wrap;html=1;backgroundOutline=1;aspect=fixed;fillColor=#e51400;strokeColor=#B20000;fontColor=#ffffff;" parent="XOg4RDr-ecWqbsroLupD-1" vertex="1">
                    <mxGeometry x="250" y="610" width="20" height="20" as="geometry"/>
                </mxCell>
                <mxCell id="XOg4RDr-ecWqbsroLupD-63" style="rounded=0;orthogonalLoop=1;jettySize=auto;html=1;exitX=0.5;exitY=0.5;exitDx=0;exitDy=0;entryX=1;entryY=0.5;entryDx=0;entryDy=0;fontSize=8;endSize=1;startSize=1;fillColor=#e51400;strokeColor=#B20000;" parent="XOg4RDr-ecWqbsroLupD-1" source="XOg4RDr-ecWqbsroLupD-69" target="XOg4RDr-ecWqbsroLupD-65" edge="1">
                    <mxGeometry relative="1" as="geometry"/>
                </mxCell>
                <mxCell id="XOg4RDr-ecWqbsroLupD-64" style="edgeStyle=orthogonalEdgeStyle;rounded=0;orthogonalLoop=1;jettySize=auto;html=1;exitX=0;exitY=0.5;exitDx=0;exitDy=0;entryX=1;entryY=0.5;entryDx=0;entryDy=0;fontSize=10;endSize=1;startSize=1;fillColor=#e51400;strokeColor=#B20000;" parent="XOg4RDr-ecWqbsroLupD-1" source="XOg4RDr-ecWqbsroLupD-65" target="XOg4RDr-ecWqbsroLupD-60" edge="1">
                    <mxGeometry relative="1" as="geometry"/>
                </mxCell>
                <mxCell id="XOg4RDr-ecWqbsroLupD-65" value="\[\ggg 24\]" style="ellipse;whiteSpace=wrap;html=1;fontSize=8;" parent="XOg4RDr-ecWqbsroLupD-1" vertex="1">
                    <mxGeometry x="180" y="570" width="40" height="20" as="geometry"/>
                </mxCell>
                <mxCell id="XOg4RDr-ecWqbsroLupD-66" style="edgeStyle=orthogonalEdgeStyle;rounded=0;orthogonalLoop=1;jettySize=auto;html=1;exitX=1;exitY=0.5;exitDx=0;exitDy=0;entryX=0;entryY=0.5;entryDx=0;entryDy=0;fontSize=10;endSize=1;startSize=1;fillColor=#e51400;strokeColor=#B20000;" parent="XOg4RDr-ecWqbsroLupD-1" source="XOg4RDr-ecWqbsroLupD-67" target="XOg4RDr-ecWqbsroLupD-62" edge="1">
                    <mxGeometry relative="1" as="geometry"/>
                </mxCell>
                <mxCell id="XOg4RDr-ecWqbsroLupD-67" value="\[\ggg 16\]" style="ellipse;whiteSpace=wrap;html=1;fontSize=8;" parent="XOg4RDr-ecWqbsroLupD-1" vertex="1">
                    <mxGeometry x="180" y="610" width="40" height="20" as="geometry"/>
                </mxCell>
                <mxCell id="XOg4RDr-ecWqbsroLupD-68" style="rounded=0;orthogonalLoop=1;jettySize=auto;html=1;exitX=0.5;exitY=0.5;exitDx=0;exitDy=0;entryX=0.5;entryY=0;entryDx=0;entryDy=0;fontSize=10;endSize=1;startSize=1;" parent="XOg4RDr-ecWqbsroLupD-1" source="XOg4RDr-ecWqbsroLupD-69" target="XOg4RDr-ecWqbsroLupD-62" edge="1">
                    <mxGeometry relative="1" as="geometry"/>
                </mxCell>
                <mxCell id="XOg4RDr-ecWqbsroLupD-69" value="" style="ellipse;whiteSpace=wrap;html=1;aspect=fixed;rounded=0;strokeWidth=3;fontColor=#5E5E5E;align=right;fillColor=#000000;spacingBottom=1;spacingLeft=1;spacingRight=1;points=[[0.5,0.5]];fontSize=10;" parent="XOg4RDr-ecWqbsroLupD-1" vertex="1">
                    <mxGeometry x="259" y="579" width="2" height="2" as="geometry"/>
                </mxCell>
                <mxCell id="XOg4RDr-ecWqbsroLupD-70" style="rounded=0;orthogonalLoop=1;jettySize=auto;html=1;exitX=0.5;exitY=0.5;exitDx=0;exitDy=0;entryX=0;entryY=0.5;entryDx=0;entryDy=0;fontSize=8;startSize=1;endSize=1;fillColor=#e51400;strokeColor=#B20000;" parent="XOg4RDr-ecWqbsroLupD-1" source="XOg4RDr-ecWqbsroLupD-71" target="XOg4RDr-ecWqbsroLupD-67" edge="1">
                    <mxGeometry relative="1" as="geometry"/>
                </mxCell>
                <mxCell id="XOg4RDr-ecWqbsroLupD-71" value="" style="ellipse;whiteSpace=wrap;html=1;aspect=fixed;rounded=0;strokeWidth=3;fontColor=#ffffff;align=right;fillColor=#e51400;spacingBottom=1;spacingLeft=1;spacingRight=1;points=[[0.5,0.5]];fontSize=10;strokeColor=#B20000;" parent="XOg4RDr-ecWqbsroLupD-1" vertex="1">
                    <mxGeometry x="139" y="619" width="2" height="2" as="geometry"/>
                </mxCell>
                <mxCell id="XOg4RDr-ecWqbsroLupD-72" style="edgeStyle=none;rounded=0;orthogonalLoop=1;jettySize=auto;html=1;exitX=0.5;exitY=1;exitDx=0;exitDy=0;fontSize=8;startSize=1;endSize=1;" parent="XOg4RDr-ecWqbsroLupD-1" source="XOg4RDr-ecWqbsroLupD-73" edge="1">
                    <mxGeometry relative="1" as="geometry">
                        <mxPoint x="139.75862068965523" y="680" as="targetPoint"/>
                    </mxGeometry>
                </mxCell>
                <mxCell id="XOg4RDr-ecWqbsroLupD-73" value="" style="shape=orEllipse;perimeter=ellipsePerimeter;whiteSpace=wrap;html=1;backgroundOutline=1;aspect=fixed;" parent="XOg4RDr-ecWqbsroLupD-1" vertex="1">
                    <mxGeometry x="130" y="640" width="20" height="20" as="geometry"/>
                </mxCell>
                <mxCell id="XOg4RDr-ecWqbsroLupD-74" style="edgeStyle=none;rounded=0;orthogonalLoop=1;jettySize=auto;html=1;exitX=0.5;exitY=0.5;exitDx=0;exitDy=0;entryX=0;entryY=0.5;entryDx=0;entryDy=0;fontSize=8;startSize=1;endSize=1;" parent="XOg4RDr-ecWqbsroLupD-1" source="XOg4RDr-ecWqbsroLupD-75" target="XOg4RDr-ecWqbsroLupD-73" edge="1">
                    <mxGeometry relative="1" as="geometry">
                        <Array as="points">
                            <mxPoint x="100" y="650"/>
                        </Array>
                    </mxGeometry>
                </mxCell>
                <mxCell id="XOg4RDr-ecWqbsroLupD-75" value="" style="ellipse;whiteSpace=wrap;html=1;aspect=fixed;rounded=0;strokeWidth=3;fontColor=#5E5E5E;align=right;fillColor=#000000;spacingBottom=1;spacingLeft=1;spacingRight=1;points=[[0.5,0.5]];fontSize=10;" parent="XOg4RDr-ecWqbsroLupD-1" vertex="1">
                    <mxGeometry x="99" y="649" width="2" height="2" as="geometry"/>
                </mxCell>
            </root>
        </mxGraphModel>
    </diagram>
</mxfile>